<svg xmlns="http://www.w3.org/2000/svg" viewBox="0 0 582 581.45"><defs><style> .background{fill:#fff;} .line{fill:#000;} </style></defs><title>EEG_Brain</title><path class="background" d="M0,0H582V581.45H0ZM282.54,4.7C201,6.73,126.26,41.14,69,111.06,29.51,159.32,8.26,215.36,6.27,277.65,3.13,376,40.76,456.46,118.1,517.25c49.84,39.18,107.57,58.41,170.93,58.49,89.89.11,164.48-34.7,222.37-103.27,42.13-49.91,64.06-108.46,65.4-173.82,1.85-90.19-31.38-165.8-99.36-225C424.33,27.32,361.52,5.26,282.54,4.7Z"/><path class="line" d="M282.54,4.7c79,.56,141.79,22.62,194.9,68.9,68,59.25,101.21,134.86,99.36,225.05-1.34,65.36-23.27,123.91-65.4,173.82C453.51,541,378.92,575.85,289,575.74c-63.36-.08-121.09-19.31-170.93-58.49C40.76,456.46,3.13,376,6.27,277.65c2-62.29,23.24-118.33,62.75-166.59C126.26,41.14,201,6.73,282.54,4.7ZM43.31,278.77c.14,77.56,25.8,144.3,79.57,194.42,47,43.82,103.37,66.73,167.39,67.28,74.76.64,138.41-27.31,188.9-82.7,42.93-47.08,64.57-103.58,64.5-167-.08-72.49-27.36-134.68-80.57-184.15-45-41.81-99.19-64.35-160.53-66.18-74.28-2.22-138.53,23.74-190,77.44C66.67,165.7,44.41,223.9,43.31,278.77Z"/><path class="background" d="M43.31,278.77c1.1-54.87,23.36-113.07,69.21-160.85C164,64.22,228.29,38.26,302.57,40.48c61.34,1.83,115.56,24.37,160.53,66.18,53.21,49.47,80.49,111.66,80.57,184.15.07,63.38-21.57,119.88-64.5,167-50.49,55.39-114.14,83.34-188.9,82.7-64-.55-120.38-23.46-167.39-67.28C69.11,423.07,43.45,356.33,43.31,278.77Zm152.3-99.31a24.38,24.38,0,0,0-1.73-3.06c-3-4.12-5.69-8.71-9.38-12.14-6.4-5.94-14.38-3.94-18.42,3.86a33.2,33.2,0,0,0-3.62,16.56c.28,7.57,1.32,15.11,2.27,22.64.21,1.66,0,2.31-1.46,3.16-3.19,1.86-6.53,3.68-9.18,6.19-6.72,6.39-10,14.24-7.69,23.59a56.72,56.72,0,0,0,4.07,10.3,4.74,4.74,0,0,1-.17,4.52c-5.5,11.74-6.93,23.7-1.55,35.94,6.93,15.76,28.29,23.55,42.7,17.59,1.22-.5,2.52-.83,4-1.32.26,1.29.41,2.35.68,3.38,1.27,4.69,2,9.63,4,14C206.91,339.93,219,349,235,353.12c8.55,2.19,17.19,3.86,26.07,2.18,2.43-.46,4.83-1.17,7.33-1.79.47,1.78.83,3.26,1.25,4.73,1.7,5.94,4.17,11.45,9.48,15.07,2.53,1.72,4.57,3.6,5.23,6.76a7.49,7.49,0,0,0,1.72,3.33c4,4.52,8.32,8.81,12.21,13.44a47.28,47.28,0,0,1,6.29,9.35c3.45,7,3.68,14.64,3.17,22.33-.6,9.11,4.52,13.54,13.49,12q8-1.35,16.07-2.35c5.72-.71,7.93-4.83,5.71-10.17A61.31,61.31,0,0,1,339.19,416c-.78-4.09-.64-8.36-.92-13,1.59.28,2.45.47,3.32.58,4.47.59,9,1.71,13.41,1.63,14.05-.28,24.76-7.1,33-18.15a5,5,0,0,1,4.66-2.4,63.42,63.42,0,0,0,10-.48c17.29-2.27,34.14-17.09,35.84-35.64.15-1.68.9-2.19,2.4-2.68,4.38-1.43,8.76-2.93,13-4.78,6.2-2.72,11.78-6.43,16-11.87,5.74-7.44,3.69-15.88-5.11-19.07a34.83,34.83,0,0,0-13-1.79c-5.56.23-11.06,1.61-16.59,2.45a15.75,15.75,0,0,1-2.38,0l-.24-.91c3.5-4.21,6.89-8.53,10.55-12.61a26.1,26.1,0,0,0,6.46-22.92c-.82-4.65-2.64-9.12-4.11-14.05.13-.08.81-.5,1.46-1,7.07-5,13.12-11,16.58-19,3.77-8.75-1.61-16.39-11.14-16.42-6.18,0-12,1.55-17.71,3.61-4,1.46-8,3.15-12.16,4.81-2-7.28-5.14-13.63-11.34-17.71.1-.49.07-.71.17-.83.88-1,1.75-2.08,2.66-3.09,5.23-5.76,9.69-12,10.84-19.93.76-5.17-.07-10-4.27-13.62-4.46-3.81-9.58-3.61-14.82-1.8-6.89,2.37-12.64,6.6-18.14,11.21-2.75,2.3-5.33,4.79-8,7.16a100.14,100.14,0,0,0-7.61-6.55c-1.66-1.17-1.5-2.19-.8-3.59,1.39-2.76,2.84-5.48,4.16-8.26,3.32-6.94,5.53-14.12,5.07-22-.32-5.66-3.59-10.14-8.77-11.32-3.72-.85-7.21.16-10.52,1.73-10.4,4.95-17.6,13.43-24.26,22.4-2.89,3.9-5.32,8.14-7.66,11.74L315.8,172.3l.5-2.68c1.34-7.17,2.12-14.33.27-21.56-2.74-10.75-11.62-13.72-20.16-6.84-4.66,3.76-7.61,8.73-10.24,13.86-2.87,5.61-5.26,11.47-7.86,17.21l-10.48-3.47c-1.23-5.28-2.22-10.24-3.57-15.09-1.67-6-3.44-12-7.2-17.16-4.08-5.59-11-6.46-15.44-1.65a33.9,33.9,0,0,0-5.32,7.79c-4.59,9.27-5.89,19.31-6.37,29.5-.15,3.3-3.36,5.22-6.53,4.57-3.93-.8-8.07-1.69-12-1.24C206.24,176.15,201.2,178,195.61,179.46Z"/><path class="line" d="M195.61,179.46c5.59-1.45,10.63-3.31,15.82-3.92,3.9-.45,8,.44,12,1.24,3.17.65,6.38-1.27,6.53-4.57.48-10.19,1.78-20.23,6.37-29.5a33.9,33.9,0,0,1,5.32-7.79c4.4-4.81,11.36-3.94,15.44,1.65,3.76,5.15,5.53,11.15,7.2,17.16,1.35,4.85,2.34,9.81,3.57,15.09l10.48,3.47c2.6-5.74,5-11.6,7.86-17.21,2.63-5.13,5.58-10.1,10.24-13.86,8.54-6.88,17.42-3.91,20.16,6.84,1.85,7.23,1.07,14.39-.27,21.56l-.5,2.68,13.41,5.61c2.34-3.6,4.77-7.84,7.66-11.74,6.66-9,13.86-17.45,24.26-22.4,3.31-1.57,6.8-2.58,10.52-1.73,5.18,1.18,8.45,5.66,8.77,11.32.46,7.86-1.75,15-5.07,22-1.32,2.78-2.77,5.5-4.16,8.26-.7,1.4-.86,2.42.8,3.59a100.14,100.14,0,0,1,7.61,6.55c2.63-2.37,5.21-4.86,8-7.16,5.5-4.61,11.25-8.84,18.14-11.21,5.24-1.81,10.36-2,14.82,1.8,4.2,3.58,5,8.45,4.27,13.62-1.15,8-5.61,14.17-10.84,19.93-.91,1-1.78,2.05-2.66,3.09-.1.12-.07.34-.17.83,6.2,4.08,9.3,10.43,11.34,17.71,4.17-1.66,8.12-3.35,12.16-4.81,5.71-2.06,11.53-3.63,17.71-3.61,9.53,0,14.91,7.67,11.14,16.42-3.46,8.05-9.51,14-16.58,19-.65.46-1.33.88-1.46,1,1.47,4.93,3.29,9.4,4.11,14.05a26.1,26.1,0,0,1-6.46,22.92c-3.66,4.08-7.05,8.4-10.55,12.61l.24.91a15.75,15.75,0,0,0,2.38,0c5.53-.84,11-2.22,16.59-2.45a34.83,34.83,0,0,1,13,1.79c8.8,3.19,10.85,11.63,5.11,19.07-4.2,5.44-9.78,9.15-16,11.87-4.21,1.85-8.59,3.35-13,4.78-1.5.49-2.25,1-2.4,2.68-1.7,18.55-18.55,33.37-35.84,35.64a63.42,63.42,0,0,1-10,.48A5,5,0,0,0,388,387c-8.21,11-18.92,17.87-33,18.15-4.46.08-8.94-1-13.41-1.63-.87-.11-1.73-.3-3.32-.58.28,4.61.14,8.88.92,13A61.31,61.31,0,0,0,343,428c2.22,5.34,0,9.46-5.71,10.17q-8.07,1-16.07,2.35c-9,1.53-14.09-2.9-13.49-12,.51-7.69.28-15.3-3.17-22.33a47.28,47.28,0,0,0-6.29-9.35c-3.89-4.63-8.18-8.92-12.21-13.44a7.49,7.49,0,0,1-1.72-3.33c-.66-3.16-2.7-5-5.23-6.76-5.31-3.62-7.78-9.13-9.48-15.07-.42-1.47-.78-2.95-1.25-4.73-2.5.62-4.9,1.33-7.33,1.79-8.88,1.68-17.52,0-26.07-2.18-16-4.1-28.1-13.19-34.92-28.43-2-4.39-2.68-9.33-4-14-.27-1-.42-2.09-.68-3.38-1.49.49-2.79.82-4,1.32-14.41,6-35.77-1.83-42.7-17.59-5.38-12.24-3.95-24.2,1.55-35.94a4.74,4.74,0,0,0,.17-4.52,56.72,56.72,0,0,1-4.07-10.3c-2.31-9.35,1-17.2,7.69-23.59,2.65-2.51,6-4.33,9.18-6.19,1.46-.85,1.67-1.5,1.46-3.16-.95-7.53-2-15.07-2.27-22.64a33.2,33.2,0,0,1,3.62-16.56c4-7.8,12-9.8,18.42-3.86,3.69,3.43,6.33,8,9.38,12.14A24.38,24.38,0,0,1,195.61,179.46Zm175.15,24a5.26,5.26,0,0,0-.53-1c-5.31-5.81-11.51-10.19-19.37-11.78-5.81-1.18-11-.36-14.83,4.78a5.91,5.91,0,0,1-3.54,2.34c-3,.3-3.83,2.18-4.4,4.57a18.9,18.9,0,0,1-.94,2.84c-.85,2-.12,3.1,1.75,4,9.69,4.83,13.63,14.33,10.28,24.55-3,9.08-12.43,14.82-22.31,13.53a20.07,20.07,0,0,1-1.12-39.7c1.65-.3,2.43-.83,2.87-2.53,1-3.75,2.17-7.46,3.51-11.1.75-2,.63-3.86-.94-5.19a13.49,13.49,0,0,0-5-3,32.41,32.41,0,0,0-8.33-.93c-7.07.08-14.17.15-20.08,5.08a6.49,6.49,0,0,1-3.74,1.41c-2,.06-2.58,1.06-3,2.72-3.53,13.66-7.13,27.3-10.68,41-2.3,8.84-4.53,17.7-6.82,26.54-.32,1.23-.66,2.06,1.05,2.71a44.15,44.15,0,0,1,8,3.88c6.49,4.13,9.63,13.32,7.18,20.6-2.63,7.78-8.34,12.11-16.27,12.84-8.38.78-15.35-2.44-19.86-9.76-6.33-10.26-2.57-21.78,8.6-26.75a3.77,3.77,0,0,0,2.5-3c2.67-11.81,5.31-23.62,8.28-35.35,3.34-13.23,7-26.38,10.6-39.53.49-1.77.11-2.77-1.39-3.52a16.64,16.64,0,0,0-3.67-1.7,61.38,61.38,0,0,0-27.17.38c-1.67.38-2.33,1.06-2.12,2.75.76,5.82,1.44,11.65,2.26,17.47a2.54,2.54,0,0,0,1.44,1.64c1.59.61,3.29.95,4.94,1.4,7.79,2.13,13.1,11.06,11.86,19.05-1.5,9.68-10.72,16.48-19.19,16.94-10.38.57-19.91-7.4-19.82-17.76.06-7.87,4.07-13.45,10.76-17.34.75-.44,1.73-1.56,1.64-2.23-.59-4.45-1.44-8.86-2.25-13.49a21.81,21.81,0,0,0-2.63.4c-3.25,1-5.8.39-7.71-2.73a4.67,4.67,0,0,0-3.18-1.56c-8-.85-14.51,2.43-19.94,8-4,4.08-5.7,9.29-6.79,14.82-1.58,8-4.27,10.16-11.9,10-.15,0-.3.17-1,.59,2.55,5.72,5.14,11.5,7.48,16.74,4.16-1.25,7.61-3,11.17-3.25,10.19-.79,18.67,7.28,19.16,17.63a18.75,18.75,0,0,1-17.6,19.41,18.31,18.31,0,0,1-18.33-24.09,5.61,5.61,0,0,0-.38-3.73c-1.89-3.89-4.12-7.63-6-11.51-1.58-3.2-2.92-6.53-4.46-10-1.76,1.15-3.33,2-4.76,3.14-5.57,4.26-7,10-4.17,16.37.88,2,1.79,3.95,2.78,5.88,2,4,2.25,7.89-.1,11.88a36.37,36.37,0,0,0-4.31,13.34c-1.44,9.68,3.24,19,11.36,23s15.64,3.45,23.37-.62a9,9,0,0,1,12.65,5,33.25,33.25,0,0,1,1.52,6.56c1.14,7.55,3.37,14.65,8.35,20.61,10.74,12.84,25.21,16.58,41.1,16.5,4.64,0,9.2-1.54,12.13-5.25,4-5,9.12-4.3,13.17.06a8.76,8.76,0,0,0,4.3,2.6A56,56,0,0,0,297.84,342c4.6-.09,9.26-.78,12.71-4.51s7-3.74,10.72-.44c5.4,4.76,8.8,4.25,12.61-1.91,1.72-2.78,3.76-3.62,6.63-2.72A6.62,6.62,0,0,1,345.2,339a11.76,11.76,0,0,0,.6,4.16c3.05,8.77,9.28,14.84,17.2,19.14,7.53,4.09,15.27,7.44,24,8.82,6.55,1,12.83,1.54,19-.66,10.35-3.7,18.14-10.4,19.62-21.79.78-6-.39-12.22-.84-18.34a50.2,50.2,0,0,0-1.2-6.2c-6,1.55-7.37,2.9-6.46,7,2.74,12.41-7.66,26.22-22.46,24.77-7.55-.74-13-4.73-16.43-11.39a19.58,19.58,0,0,1,1-20.43c6.41-10,20.66-13.18,30.37-5.08a2.92,2.92,0,0,0,2.35.71c3.14-1.34,6.17-2.9,9.95-4.73-2.47-4.69-4.65-9.22-7.19-13.52-1.89-3.2-1.91-6,.6-8.33a6.29,6.29,0,0,1,8.62.24,26.13,26.13,0,0,1,2.57,3.32c3.22-3.56,5.92-6.47,8.53-9.47a7,7,0,0,0,1.58-2.81c2-8.64.37-19.85-12.32-21.85q-7.1-1.11-8.5-8.29c-.41-2.07-1.24-4.05-2.05-6.64l-15,11.38c.76,1.1,1.15,1.71,1.59,2.28,5.73,7.54,6.38,17.17,1.67,24.58a21,21,0,0,1-22.8,9.35c-8.67-2-14.25-7.68-16-16.27-1.58-7.81.54-14.93,6.9-20.32A21.06,21.06,0,0,1,389.37,254a4.85,4.85,0,0,0,3.56-.67c5.7-4.3,11.28-8.74,16.84-13.22a2.8,2.8,0,0,0,1.09-2.14c-.94-4.24-1.85-8.6-5.24-11.68-5.2-4.73-11.51-5.79-18.26-4.89-4.66.62-7.48-1-9-5.43-.51-1.5-1.09-3-1.89-5.14a417.61,417.61,0,0,0-43.76,66.47c3.14,1.7,5.95,2.72,8.14,4.49,6.63,5.38,8.84,12.53,6.72,20.7-2,7.6-7.27,12.4-14.81,14-8.1,1.72-15.13-.85-20.14-7.6a19.73,19.73,0,0,1,8.67-30.06c1.23-.49,2.74-1.43,3.17-2.53,4.67-12.15,11.45-23.18,18.3-34.13A327.16,327.16,0,0,1,370.76,203.5ZM320.68,352.21c-4.15,10.31,2.82,29.43,17.07,36.55,14.92,7.45,31.42,3.48,37.92-7.14-2.35-.9-4.72-1.78-7.05-2.72-12.43-5-23.33-12-30.16-24-2.13-3.76-2.17-3.35-6.38-2.76C328.4,352.62,324.58,352.21,320.68,352.21Zm7.51,74.18a2.79,2.79,0,0,0,.12-.8,75.76,75.76,0,0,1-2.05-27.48,3.29,3.29,0,0,0-1.12-2.47c-5.57-4.32-9.39-9.95-12.64-16.1s-8.32-8.05-14.12-6.25c-3,.92-3.39,2.41-1.24,4.69,1.79,1.92,3.8,3.63,5.58,5.56,3.61,3.92,7.74,7.53,10.54,12,5.41,8.61,7.59,18.31,7.25,28.52,0,1.21,0,2.43,0,3.9Zm34.18-245.14c2.45-5.43,5.16-10.45,7-15.79,1.25-3.67,1.48-7.75,1.75-11.67.17-2.57-.93-3.27-3.45-2.49-2.13.65-4.5,1.33-6.09,2.76-5.22,4.69-10.29,9.58-15.1,14.69-2.52,2.69-4.38,6-6.54,9C347.83,176.85,354.93,178.17,362.37,181.25Zm22.91,20a12.81,12.81,0,0,1,.94,1.75c1.39,4.33,4.63,5,8.77,6,6.09,1.43,9.63-.6,12.92-5.16,2.85-4,6.23-7.54,7.39-12.48.58-2.49,1.3-5.19-.9-7.11s-4.67-.62-6.91.3C398.67,188.18,392,194.72,385.28,201.25Zm10.55,73.29a11.89,11.89,0,1,0-23.77.6,11.69,11.69,0,0,0,12.16,11.54A11.81,11.81,0,0,0,395.83,274.54Zm-10.57,60.74a11.15,11.15,0,0,0,11.43,11.52c6.57.07,11.46-5,11.46-11.81,0-6.16-5.14-11.07-11.61-11.13A11.22,11.22,0,0,0,385.26,335.28Zm-65.88-97c6.38.11,11.91-4.93,11.94-10.9a11.13,11.13,0,0,0-10.8-11c-6.63-.13-12,4.7-12.08,10.9A10.84,10.84,0,0,0,319.38,238.32ZM176.44,208c1-1.18,2-1.9,2.22-2.83,1.72-6.53,4.11-12.69,8.79-17.77a3,3,0,0,0,.25-2.8,111.7,111.7,0,0,0-6.61-10.85c-1.07-1.5-3-2.38-4.56-3.54-1.1,1.56-2.68,3-3.22,4.71-3.23,10.36-1.73,20.72.55,31C174,206.57,175.16,207,176.44,208Zm274.19,25.13c-8.66.7-16.57,4.25-24.39,8a1.71,1.71,0,0,0-.77,1.43c.66,2.43.77,5.84,2.42,7,3,2.07,6.89,2.79,10.42,4.08,7.5-4,13.4-9.47,16.82-17.39.76-1.75,0-2.59-1.62-2.91A24.28,24.28,0,0,0,450.63,233.11Zm-11.9,104c3.87-1.43,7.5-2.53,10.92-4.09,5-2.31,9.77-5.14,13.06-9.78,1.8-2.55,1.18-4-1.87-5a18.68,18.68,0,0,0-2.09-.5c-6.54-1.2-12.94.09-19.34,1.2a30.86,30.86,0,0,0-3.72,1.09C436.71,325.73,437.67,331.13,438.73,337.1ZM248.92,141c-5.43,3-10.51,22.76-9.25,29.42l18.7-2.47C255.93,158.74,254.66,149.17,248.92,141Zm90.16,156.34a10.51,10.51,0,0,0-21-.39,10.66,10.66,0,0,0,10.71,11C334.23,307.91,339,303,339.08,297.34ZM287.49,174.76c5.95-.83,11.72-1.6,17.48-2.49a2.34,2.34,0,0,0,1.58-1.4c1.42-6.48,2.77-13,1.28-19.63-.36-1.58-1.47-3-2.24-4.46-1.47.81-3.24,1.32-4.35,2.47C294.21,156.54,291.25,166,287.49,174.76ZM261.31,292.64c5.48,0,10-4,10.07-8.9.08-5.78-5.31-10.7-11.71-10.71-5.78,0-9.83,3.8-9.83,9.24S255.27,292.66,261.31,292.64Zm-20.2-79c-6-.08-11.08,4.55-11.16,10.18-.07,5,3.88,8.54,9.47,8.57,6.08,0,11.07-4.37,11.18-9.86C250.7,217.42,246.73,213.69,241.11,213.63Zm-53.18,38.89a8.68,8.68,0,0,0,9,9.1,9.72,9.72,0,0,0,9.53-9.55,9.3,9.3,0,0,0-9-9A9.47,9.47,0,0,0,187.93,252.52Zm92.91,99.79a19,19,0,0,0,4.63,11.4c1.44,1.64,2.75,2,4.58.51a15.32,15.32,0,0,1,3.6-1.79c4.55-1.91,9.28-1.65,14.13-.74.18-3,.34-5.61.51-8.51C299,355.14,290.08,355.72,280.84,352.31Z"/><path class="background" d="M370.76,203.5a327.16,327.16,0,0,0-28,38.68c-6.85,10.95-13.63,22-18.3,34.13-.43,1.1-1.94,2-3.17,2.53a19.73,19.73,0,0,0-8.67,30.06c5,6.75,12,9.32,20.14,7.6,7.54-1.59,12.84-6.39,14.81-14,2.12-8.17-.09-15.32-6.72-20.7-2.19-1.77-5-2.79-8.14-4.49a417.61,417.61,0,0,1,43.76-66.47c.8,2.17,1.38,3.64,1.89,5.14,1.51,4.41,4.33,6,9,5.43,6.75-.9,13.06.16,18.26,4.89,3.39,3.08,4.3,7.44,5.24,11.68a2.8,2.8,0,0,1-1.09,2.14c-5.56,4.48-11.14,8.92-16.84,13.22a4.85,4.85,0,0,1-3.56.67,21.06,21.06,0,0,0-19.25,4.64c-6.36,5.39-8.48,12.51-6.9,20.32,1.72,8.59,7.3,14.28,16,16.27A21,21,0,0,0,402,285.9c4.71-7.41,4.06-17-1.67-24.58-.44-.57-.83-1.18-1.59-2.28l15-11.38c.81,2.59,1.64,4.57,2.05,6.64q1.41,7.17,8.5,8.29c12.69,2,14.28,13.21,12.32,21.85a7,7,0,0,1-1.58,2.81c-2.61,3-5.31,5.91-8.53,9.47a26.13,26.13,0,0,0-2.57-3.32,6.29,6.29,0,0,0-8.62-.24c-2.51,2.31-2.49,5.13-.6,8.33,2.54,4.3,4.72,8.83,7.19,13.52-3.78,1.83-6.81,3.39-9.95,4.73a2.92,2.92,0,0,1-2.35-.71c-9.71-8.1-24-4.94-30.37,5.08a19.58,19.58,0,0,0-1,20.43c3.39,6.66,8.88,10.65,16.43,11.39,14.8,1.45,25.2-12.36,22.46-24.77-.91-4.13.5-5.48,6.46-7a50.2,50.2,0,0,1,1.2,6.2c.45,6.12,1.62,12.36.84,18.34-1.48,11.39-9.27,18.09-19.62,21.79-6.15,2.2-12.43,1.7-19,.66-8.71-1.38-16.45-4.73-24-8.82-7.92-4.3-14.15-10.37-17.2-19.14a11.76,11.76,0,0,1-.6-4.16,6.62,6.62,0,0,0-4.69-6.54c-2.87-.9-4.91-.06-6.63,2.72-3.81,6.16-7.21,6.67-12.61,1.91-3.75-3.3-7.39-3.17-10.72.44S302.44,342,297.84,342a56,56,0,0,1-11.77-1.39,8.76,8.76,0,0,1-4.3-2.6c-4-4.36-9.21-5.07-13.17-.06-2.93,3.71-7.49,5.23-12.13,5.25-15.89.08-30.36-3.66-41.1-16.5-5-6-7.21-13.06-8.35-20.61a33.25,33.25,0,0,0-1.52-6.56,9,9,0,0,0-12.65-5c-7.73,4.07-15.4,4.58-23.37.62s-12.8-13.35-11.36-23a36.37,36.37,0,0,1,4.31-13.34c2.35-4,2.13-7.89.1-11.88-1-1.93-1.9-3.9-2.78-5.88-2.85-6.36-1.4-12.11,4.17-16.37,1.43-1.09,3-2,4.76-3.14,1.54,3.51,2.88,6.84,4.46,10,1.92,3.88,4.15,7.62,6,11.51a5.61,5.61,0,0,1,.38,3.73,18.31,18.31,0,0,0,18.33,24.09,18.75,18.75,0,0,0,17.6-19.41c-.49-10.35-9-18.42-19.16-17.63-3.56.28-7,2-11.17,3.25-2.34-5.24-4.93-11-7.48-16.74.71-.42.86-.59,1-.59,7.63.15,10.32-2,11.9-10,1.09-5.53,2.81-10.74,6.79-14.82,5.43-5.56,11.92-8.84,19.94-8a4.67,4.67,0,0,1,3.18,1.56c1.91,3.12,4.46,3.69,7.71,2.73a21.81,21.81,0,0,1,2.63-.4c.81,4.63,1.66,9,2.25,13.49.09.67-.89,1.79-1.64,2.23-6.69,3.89-10.7,9.47-10.76,17.34-.09,10.36,9.44,18.33,19.82,17.76,8.47-.46,17.69-7.26,19.19-16.94,1.24-8-4.07-16.92-11.86-19.05-1.65-.45-3.35-.79-4.94-1.4a2.54,2.54,0,0,1-1.44-1.64c-.82-5.82-1.5-11.65-2.26-17.47-.21-1.69.45-2.37,2.12-2.75a61.38,61.38,0,0,1,27.17-.38,16.64,16.64,0,0,1,3.67,1.7c1.5.75,1.88,1.75,1.39,3.52-3.62,13.15-7.26,26.3-10.6,39.53-3,11.73-5.61,23.54-8.28,35.35a3.77,3.77,0,0,1-2.5,3c-11.17,5-14.93,16.49-8.6,26.75,4.51,7.32,11.48,10.54,19.86,9.76,7.93-.73,13.64-5.06,16.27-12.84,2.45-7.28-.69-16.47-7.18-20.6a44.15,44.15,0,0,0-8-3.88c-1.71-.65-1.37-1.48-1.05-2.71,2.29-8.84,4.52-17.7,6.82-26.54,3.55-13.66,7.15-27.3,10.68-41,.43-1.66,1-2.66,3-2.72a6.49,6.49,0,0,0,3.74-1.41c5.91-4.93,13-5,20.08-5.08a32.41,32.41,0,0,1,8.33.93,13.49,13.49,0,0,1,5,3c1.57,1.33,1.69,3.15.94,5.19-1.34,3.64-2.53,7.35-3.51,11.1-.44,1.7-1.22,2.23-2.87,2.53a20.07,20.07,0,0,0,1.12,39.7c9.88,1.29,19.34-4.45,22.31-13.53,3.35-10.22-.59-19.72-10.28-24.55-1.87-.93-2.6-2-1.75-4a18.9,18.9,0,0,0,.94-2.84c.57-2.39,1.41-4.27,4.4-4.57a5.91,5.91,0,0,0,3.54-2.34c3.87-5.14,9-6,14.83-4.78,7.86,1.59,14.06,6,19.37,11.78A5.26,5.26,0,0,1,370.76,203.5Z"/><path class="background" d="M320.68,352.21c3.9,0,7.72.41,11.4-.11,4.21-.59,4.25-1,6.38,2.76,6.83,12.08,17.73,19,30.16,24,2.33.94,4.7,1.82,7.05,2.72-6.5,10.62-23,14.59-37.92,7.14C323.5,381.64,316.53,362.52,320.68,352.21Z"/><path class="background" d="M328.19,426.39l-7.68,1.54c0-1.47,0-2.69,0-3.9.34-10.21-1.84-19.91-7.25-28.52-2.8-4.44-6.93-8.05-10.54-12-1.78-1.93-3.79-3.64-5.58-5.56-2.15-2.28-1.73-3.77,1.24-4.69,5.8-1.8,10.91.16,14.12,6.25s7.07,11.78,12.64,16.1a3.29,3.29,0,0,1,1.12,2.47,75.76,75.76,0,0,0,2.05,27.48A2.79,2.79,0,0,1,328.19,426.39Z"/><path class="background" d="M362.37,181.25c-7.44-3.08-14.54-4.4-22.45-3.46,2.16-3,4-6.35,6.54-9,4.81-5.11,9.88-10,15.1-14.69,1.59-1.43,4-2.11,6.09-2.76,2.52-.78,3.62-.08,3.45,2.49-.27,3.92-.5,8-1.75,11.67C367.53,170.8,364.82,175.82,362.37,181.25Z"/><path class="background" d="M385.28,201.25c6.74-6.53,13.39-13.07,22.21-16.71,2.24-.92,4.74-2.19,6.91-.3s1.48,4.62.9,7.11c-1.16,4.94-4.54,8.53-7.39,12.48-3.29,4.56-6.83,6.59-12.92,5.16-4.14-1-7.38-1.66-8.77-6A12.81,12.81,0,0,0,385.28,201.25Z"/><path class="background" d="M395.83,274.54a11.81,11.81,0,0,1-11.61,12.14,11.69,11.69,0,0,1-12.16-11.54,11.89,11.89,0,1,1,23.77-.6Z"/><path class="background" d="M385.26,335.28a11.22,11.22,0,0,1,11.28-11.42c6.47.06,11.6,5,11.61,11.13,0,6.83-4.89,11.88-11.46,11.81A11.15,11.15,0,0,1,385.26,335.28Z"/><path class="background" d="M319.38,238.32a10.84,10.84,0,0,1-10.94-11c.1-6.2,5.45-11,12.08-10.9a11.13,11.13,0,0,1,10.8,11C331.29,233.39,325.76,238.43,319.38,238.32Z"/><path class="background" d="M176.44,208c-1.28-1-2.44-1.41-2.58-2.06-2.28-10.3-3.78-20.66-.55-31,.54-1.74,2.12-3.15,3.22-4.71,1.55,1.16,3.49,2,4.56,3.54a111.7,111.7,0,0,1,6.61,10.85,3,3,0,0,1-.25,2.8c-4.68,5.08-7.07,11.24-8.79,17.77C178.42,206.08,177.4,206.8,176.44,208Z"/><path class="background" d="M450.63,233.11a24.28,24.28,0,0,1,2.88.21c1.62.32,2.38,1.16,1.62,2.91-3.42,7.92-9.32,13.42-16.82,17.39-3.53-1.29-7.45-2-10.42-4.08-1.65-1.15-1.76-4.56-2.42-7a1.71,1.71,0,0,1,.77-1.43C434.06,237.36,442,233.81,450.63,233.11Z"/><path class="background" d="M438.73,337.1c-1.06-6-2-11.37-3-17.06a30.86,30.86,0,0,1,3.72-1.09c6.4-1.11,12.8-2.4,19.34-1.2a18.68,18.68,0,0,1,2.09.5c3.05.95,3.67,2.43,1.87,5-3.29,4.64-8,7.47-13.06,9.78C446.23,334.57,442.6,335.67,438.73,337.1Z"/><path class="background" d="M248.92,141c5.74,8.17,7,17.74,9.45,26.95l-18.7,2.47C238.41,163.76,243.49,144,248.92,141Z"/><path class="background" d="M339.08,297.34c0,5.62-4.85,10.57-10.3,10.58a10.66,10.66,0,0,1-10.71-11,10.51,10.51,0,0,1,21,.39Z"/><path class="background" d="M287.49,174.76c3.76-8.75,6.72-18.22,13.75-25.51,1.11-1.15,2.88-1.66,4.35-2.47.77,1.48,1.88,2.88,2.24,4.46,1.49,6.63.14,13.15-1.28,19.63a2.34,2.34,0,0,1-1.58,1.4C299.21,173.16,293.44,173.93,287.49,174.76Z"/><path class="background" d="M261.31,292.64c-6,0-11.47-4.9-11.47-10.37s4-9.24,9.83-9.24c6.4,0,11.79,4.93,11.71,10.71C271.31,288.63,266.79,292.63,261.31,292.64Z"/><path class="background" d="M241.11,213.63c5.62.06,9.59,3.79,9.49,8.89-.11,5.49-5.1,9.89-11.18,9.86-5.59,0-9.54-3.6-9.47-8.57C230,218.18,235.1,213.55,241.11,213.63Z"/><path class="background" d="M187.93,252.52a9.47,9.47,0,0,1,9.51-9.48,9.3,9.3,0,0,1,9,9,9.72,9.72,0,0,1-9.53,9.55A8.68,8.68,0,0,1,187.93,252.52Z"/><path class="background" d="M280.84,352.31c9.24,3.41,18.16,2.83,27.45.87-.17,2.9-.33,5.54-.51,8.51-4.85-.91-9.58-1.17-14.13.74a15.32,15.32,0,0,0-3.6,1.79c-1.83,1.47-3.14,1.13-4.58-.51A19,19,0,0,1,280.84,352.31Z"/></svg>