<svg xmlns="http://www.w3.org/2000/svg" viewBox="0 0 582 581.45"><defs><style>.line{fill:#000;}</style></defs><title>EEG_Brain</title> <path class="line" d="M282.54,4.7c79,.56,141.79,22.62,194.9,68.9,68,59.25,101.21,134.86,99.36,225.05-1.34,65.36-23.27,123.91-65.4,173.82C453.51,541,378.92,575.85,289,575.74c-63.36-.08-121.09-19.31-170.93-58.49C40.76,456.46,3.13,376,6.27,277.65c2-62.29,23.24-118.33,62.75-166.59C126.26,41.14,201,6.73,282.54,4.7ZM43.31,278.77c.14,77.56,25.8,144.3,79.57,194.42,47,43.82,103.37,66.73,167.39,67.28,74.76.64,138.41-27.31,188.9-82.7,42.93-47.08,64.57-103.58,64.5-167-.08-72.49-27.36-134.68-80.57-184.15-45-41.81-99.19-64.35-160.53-66.18-74.28-2.22-138.53,23.74-190,77.44C66.67,165.7,44.41,223.9,43.31,278.77Z"/><path class="line" d="M195.61,179.46c5.59-1.45,10.63-3.31,15.82-3.92,3.9-.45,8,.44,12,1.24,3.17.65,6.38-1.27,6.53-4.57.48-10.19,1.78-20.23,6.37-29.5a33.9,33.9,0,0,1,5.32-7.79c4.4-4.81,11.36-3.94,15.44,1.65,3.76,5.15,5.53,11.15,7.2,17.16,1.35,4.85,2.34,9.81,3.57,15.09l10.48,3.47c2.6-5.74,5-11.6,7.86-17.21,2.63-5.13,5.58-10.1,10.24-13.86,8.54-6.88,17.42-3.91,20.16,6.84,1.85,7.23,1.07,14.39-.27,21.56l-.5,2.68,13.41,5.61c2.34-3.6,4.77-7.84,7.66-11.74,6.66-9,13.86-17.45,24.26-22.4,3.31-1.57,6.8-2.58,10.52-1.73,5.18,1.18,8.45,5.66,8.77,11.32.46,7.86-1.75,15-5.07,22-1.32,2.78-2.77,5.5-4.16,8.26-.7,1.4-.86,2.42.8,3.59a100.14,100.14,0,0,1,7.61,6.55c2.63-2.37,5.21-4.86,8-7.16,5.5-4.61,11.25-8.84,18.14-11.21,5.24-1.81,10.36-2,14.82,1.8,4.2,3.58,5,8.45,4.27,13.62-1.15,8-5.61,14.17-10.84,19.93-.91,1-1.78,2.05-2.66,3.09-.1.12-.07.34-.17.83,6.2,4.08,9.3,10.43,11.34,17.71,4.17-1.66,8.12-3.35,12.16-4.81,5.71-2.06,11.53-3.63,17.71-3.61,9.53,0,14.91,7.67,11.14,16.42-3.46,8.05-9.51,14-16.58,19-.65.46-1.33.88-1.46,1,1.47,4.93,3.29,9.4,4.11,14.05a26.1,26.1,0,0,1-6.46,22.92c-3.66,4.08-7.05,8.4-10.55,12.61l.24.91a15.75,15.75,0,0,0,2.38,0c5.53-.84,11-2.22,16.59-2.45a34.83,34.83,0,0,1,13,1.79c8.8,3.19,10.85,11.63,5.11,19.07-4.2,5.44-9.78,9.15-16,11.87-4.21,1.85-8.59,3.35-13,4.78-1.5.49-2.25,1-2.4,2.68-1.7,18.55-18.55,33.37-35.84,35.64a63.42,63.42,0,0,1-10,.48A5,5,0,0,0,388,387c-8.21,11-18.92,17.87-33,18.15-4.46.08-8.94-1-13.41-1.63-.87-.11-1.73-.3-3.32-.58.28,4.61.14,8.88.92,13A61.31,61.31,0,0,0,343,428c2.22,5.34,0,9.46-5.71,10.17q-8.07,1-16.07,2.35c-9,1.53-14.09-2.9-13.49-12,.51-7.69.28-15.3-3.17-22.33a47.28,47.28,0,0,0-6.29-9.35c-3.89-4.63-8.18-8.92-12.21-13.44a7.49,7.49,0,0,1-1.72-3.33c-.66-3.16-2.7-5-5.23-6.76-5.31-3.62-7.78-9.13-9.48-15.07-.42-1.47-.78-2.95-1.25-4.73-2.5.62-4.9,1.33-7.33,1.79-8.88,1.68-17.52,0-26.07-2.18-16-4.1-28.1-13.19-34.92-28.43-2-4.39-2.68-9.33-4-14-.27-1-.42-2.09-.68-3.38-1.49.49-2.79.82-4,1.32-14.41,6-35.77-1.83-42.7-17.59-5.38-12.24-3.95-24.2,1.55-35.94a4.74,4.74,0,0,0,.17-4.52,56.72,56.72,0,0,1-4.07-10.3c-2.31-9.35,1-17.2,7.69-23.59,2.65-2.51,6-4.33,9.18-6.19,1.46-.85,1.67-1.5,1.46-3.16-.95-7.53-2-15.07-2.27-22.64a33.2,33.2,0,0,1,3.62-16.56c4-7.8,12-9.8,18.42-3.86,3.69,3.43,6.33,8,9.38,12.14A24.38,24.38,0,0,1,195.61,179.46Zm175.15,24a5.26,5.26,0,0,0-.53-1c-5.31-5.81-11.51-10.19-19.37-11.78-5.81-1.18-11-.36-14.83,4.78a5.91,5.91,0,0,1-3.54,2.34c-3,.3-3.83,2.18-4.4,4.57a18.9,18.9,0,0,1-.94,2.84c-.85,2-.12,3.1,1.75,4,9.69,4.83,13.63,14.33,10.28,24.55-3,9.08-12.43,14.82-22.31,13.53a20.07,20.07,0,0,1-1.12-39.7c1.65-.3,2.43-.83,2.87-2.53,1-3.75,2.17-7.46,3.51-11.1.75-2,.63-3.86-.94-5.19a13.49,13.49,0,0,0-5-3,32.41,32.41,0,0,0-8.33-.93c-7.07.08-14.17.15-20.08,5.08a6.49,6.49,0,0,1-3.74,1.41c-2,.06-2.58,1.06-3,2.72-3.53,13.66-7.13,27.3-10.68,41-2.3,8.84-4.53,17.7-6.82,26.54-.32,1.23-.66,2.06,1.05,2.71a44.15,44.15,0,0,1,8,3.88c6.49,4.13,9.63,13.32,7.18,20.6-2.63,7.78-8.34,12.11-16.27,12.84-8.38.78-15.35-2.44-19.86-9.76-6.33-10.26-2.57-21.78,8.6-26.75a3.77,3.77,0,0,0,2.5-3c2.67-11.81,5.31-23.62,8.28-35.35,3.34-13.23,7-26.38,10.6-39.53.49-1.77.11-2.77-1.39-3.52a16.64,16.64,0,0,0-3.67-1.7,61.38,61.38,0,0,0-27.17.38c-1.67.38-2.33,1.06-2.12,2.75.76,5.82,1.44,11.65,2.26,17.47a2.54,2.54,0,0,0,1.44,1.64c1.59.61,3.29.95,4.94,1.4,7.79,2.13,13.1,11.06,11.86,19.05-1.5,9.68-10.72,16.48-19.19,16.94-10.38.57-19.91-7.4-19.82-17.76.06-7.87,4.07-13.45,10.76-17.34.75-.44,1.73-1.56,1.64-2.23-.59-4.45-1.44-8.86-2.25-13.49a21.81,21.81,0,0,0-2.63.4c-3.25,1-5.8.39-7.71-2.73a4.67,4.67,0,0,0-3.18-1.56c-8-.85-14.51,2.43-19.94,8-4,4.08-5.7,9.29-6.79,14.82-1.58,8-4.27,10.16-11.9,10-.15,0-.3.17-1,.59,2.55,5.72,5.14,11.5,7.48,16.74,4.16-1.25,7.61-3,11.17-3.25,10.19-.79,18.67,7.28,19.16,17.63a18.75,18.75,0,0,1-17.6,19.41,18.31,18.31,0,0,1-18.33-24.09,5.61,5.61,0,0,0-.38-3.73c-1.89-3.89-4.12-7.63-6-11.51-1.58-3.2-2.92-6.53-4.46-10-1.76,1.15-3.33,2-4.76,3.14-5.57,4.26-7,10-4.17,16.37.88,2,1.79,3.95,2.78,5.88,2,4,2.25,7.89-.1,11.88a36.37,36.37,0,0,0-4.31,13.34c-1.44,9.68,3.24,19,11.36,23s15.64,3.45,23.37-.62a9,9,0,0,1,12.65,5,33.25,33.25,0,0,1,1.52,6.56c1.14,7.55,3.37,14.65,8.35,20.61,10.74,12.84,25.21,16.58,41.1,16.5,4.64,0,9.2-1.54,12.13-5.25,4-5,9.12-4.3,13.17.06a8.76,8.76,0,0,0,4.3,2.6A56,56,0,0,0,297.84,342c4.6-.09,9.26-.78,12.71-4.51s7-3.74,10.72-.44c5.4,4.76,8.8,4.25,12.61-1.91,1.72-2.78,3.76-3.62,6.63-2.72A6.62,6.62,0,0,1,345.2,339a11.76,11.76,0,0,0,.6,4.16c3.05,8.77,9.28,14.84,17.2,19.14,7.53,4.09,15.27,7.44,24,8.82,6.55,1,12.83,1.54,19-.66,10.35-3.7,18.14-10.4,19.62-21.79.78-6-.39-12.22-.84-18.34a50.2,50.2,0,0,0-1.2-6.2c-6,1.55-7.37,2.9-6.46,7,2.74,12.41-7.66,26.22-22.46,24.77-7.55-.74-13-4.73-16.43-11.39a19.58,19.58,0,0,1,1-20.43c6.41-10,20.66-13.18,30.37-5.08a2.92,2.92,0,0,0,2.35.71c3.14-1.34,6.17-2.9,9.95-4.73-2.47-4.69-4.65-9.22-7.19-13.52-1.89-3.2-1.91-6,.6-8.33a6.29,6.29,0,0,1,8.62.24,26.13,26.13,0,0,1,2.57,3.32c3.22-3.56,5.92-6.47,8.53-9.47a7,7,0,0,0,1.58-2.81c2-8.64.37-19.85-12.32-21.85q-7.1-1.11-8.5-8.29c-.41-2.07-1.24-4.05-2.05-6.64l-15,11.38c.76,1.1,1.15,1.71,1.59,2.28,5.73,7.54,6.38,17.17,1.67,24.58a21,21,0,0,1-22.8,9.35c-8.67-2-14.25-7.68-16-16.27-1.58-7.81.54-14.93,6.9-20.32A21.06,21.06,0,0,1,389.37,254a4.85,4.85,0,0,0,3.56-.67c5.7-4.3,11.28-8.74,16.84-13.22a2.8,2.8,0,0,0,1.09-2.14c-.94-4.24-1.85-8.6-5.24-11.68-5.2-4.73-11.51-5.79-18.26-4.89-4.66.62-7.48-1-9-5.43-.51-1.5-1.09-3-1.89-5.14a417.61,417.61,0,0,0-43.76,66.47c3.14,1.7,5.95,2.72,8.14,4.49,6.63,5.38,8.84,12.53,6.72,20.7-2,7.6-7.27,12.4-14.81,14-8.1,1.72-15.13-.85-20.14-7.6a19.73,19.73,0,0,1,8.67-30.06c1.23-.49,2.74-1.43,3.17-2.53,4.67-12.15,11.45-23.18,18.3-34.13A327.16,327.16,0,0,1,370.76,203.5ZM320.68,352.21c-4.15,10.31,2.82,29.43,17.07,36.55,14.92,7.45,31.42,3.48,37.92-7.14-2.35-.9-4.72-1.78-7.05-2.72-12.43-5-23.33-12-30.16-24-2.13-3.76-2.17-3.35-6.38-2.76C328.4,352.62,324.58,352.21,320.68,352.21Zm7.51,74.18a2.79,2.79,0,0,0,.12-.8,75.76,75.76,0,0,1-2.05-27.48,3.29,3.29,0,0,0-1.12-2.47c-5.57-4.32-9.39-9.95-12.64-16.1s-8.32-8.05-14.12-6.25c-3,.92-3.39,2.41-1.24,4.69,1.79,1.92,3.8,3.63,5.58,5.56,3.61,3.92,7.74,7.53,10.54,12,5.41,8.61,7.59,18.31,7.25,28.52,0,1.21,0,2.43,0,3.9Zm34.18-245.14c2.45-5.43,5.16-10.45,7-15.79,1.25-3.67,1.48-7.75,1.75-11.67.17-2.57-.93-3.27-3.45-2.49-2.13.65-4.5,1.33-6.09,2.76-5.22,4.69-10.29,9.58-15.1,14.69-2.52,2.69-4.38,6-6.54,9C347.83,176.85,354.93,178.17,362.37,181.25Zm22.91,20a12.81,12.81,0,0,1,.94,1.75c1.39,4.33,4.63,5,8.77,6,6.09,1.43,9.63-.6,12.92-5.16,2.85-4,6.23-7.54,7.39-12.48.58-2.49,1.3-5.19-.9-7.11s-4.67-.62-6.91.3C398.67,188.18,392,194.72,385.28,201.25Zm10.55,73.29a11.89,11.89,0,1,0-23.77.6,11.69,11.69,0,0,0,12.16,11.54A11.81,11.81,0,0,0,395.83,274.54Zm-10.57,60.74a11.15,11.15,0,0,0,11.43,11.52c6.57.07,11.46-5,11.46-11.81,0-6.16-5.14-11.07-11.61-11.13A11.22,11.22,0,0,0,385.26,335.28Zm-65.88-97c6.38.11,11.91-4.93,11.94-10.9a11.13,11.13,0,0,0-10.8-11c-6.63-.13-12,4.7-12.08,10.9A10.84,10.84,0,0,0,319.38,238.32ZM176.44,208c1-1.18,2-1.9,2.22-2.83,1.72-6.53,4.11-12.69,8.79-17.77a3,3,0,0,0,.25-2.8,111.7,111.7,0,0,0-6.61-10.85c-1.07-1.5-3-2.38-4.56-3.54-1.1,1.56-2.68,3-3.22,4.71-3.23,10.36-1.73,20.72.55,31C174,206.57,175.16,207,176.44,208Zm274.19,25.13c-8.66.7-16.57,4.25-24.39,8a1.71,1.71,0,0,0-.77,1.43c.66,2.43.77,5.84,2.42,7,3,2.07,6.89,2.79,10.42,4.08,7.5-4,13.4-9.47,16.82-17.39.76-1.75,0-2.59-1.62-2.91A24.28,24.28,0,0,0,450.63,233.11Zm-11.9,104c3.87-1.43,7.5-2.53,10.92-4.09,5-2.31,9.77-5.14,13.06-9.78,1.8-2.55,1.18-4-1.87-5a18.68,18.68,0,0,0-2.09-.5c-6.54-1.2-12.94.09-19.34,1.2a30.86,30.86,0,0,0-3.72,1.09C436.71,325.73,437.67,331.13,438.73,337.1ZM248.92,141c-5.43,3-10.51,22.76-9.25,29.42l18.7-2.47C255.93,158.74,254.66,149.17,248.92,141Zm90.16,156.34a10.51,10.51,0,0,0-21-.39,10.66,10.66,0,0,0,10.71,11C334.23,307.91,339,303,339.08,297.34ZM287.49,174.76c5.95-.83,11.72-1.6,17.48-2.49a2.34,2.34,0,0,0,1.58-1.4c1.42-6.48,2.77-13,1.28-19.63-.36-1.58-1.47-3-2.24-4.46-1.47.81-3.24,1.32-4.35,2.47C294.21,156.54,291.25,166,287.49,174.76ZM261.31,292.64c5.48,0,10-4,10.07-8.9.08-5.78-5.31-10.7-11.71-10.71-5.78,0-9.83,3.8-9.83,9.24S255.27,292.66,261.31,292.64Zm-20.2-79c-6-.08-11.08,4.55-11.16,10.18-.07,5,3.88,8.54,9.47,8.57,6.08,0,11.07-4.37,11.18-9.86C250.7,217.42,246.73,213.69,241.11,213.63Zm-53.18,38.89a8.68,8.68,0,0,0,9,9.1,9.72,9.72,0,0,0,9.53-9.55,9.3,9.3,0,0,0-9-9A9.47,9.47,0,0,0,187.93,252.52Zm92.91,99.79a19,19,0,0,0,4.63,11.4c1.44,1.64,2.75,2,4.58.51a15.32,15.32,0,0,1,3.6-1.79c4.55-1.91,9.28-1.65,14.13-.74.18-3,.34-5.61.51-8.51C299,355.14,290.08,355.72,280.84,352.31Z"/></svg>